#!OML:ASF F:\VICON\USERDATA\INSTALL\rory3\rory3.ASF
:FULLY-SPECIFIED
:DEGREES
37
root 0.49929882536808856 18.780564294643735 1.607546027824318 3.6306276206309107 1.8791024623422592 -2.051609288396135
lfemur -11.70225580602629 2.353463277549191 -17.803500296420673
ltibia 38.31688108600708
lfoot 13.714346960013017 -15.695502457237053
ltoes -8.615268599117531
rfemur -23.15668119894465 3.204239402775641 29.262127027528653
rtibia 47.18092827040695
rfoot 13.130599296233221 -4.020796183638811
rtoes 13.320856217627497
lowerback 14.660886183220073 -0.6160813535382387 0.006736087670923485
upperback -0.6588992989085245 -0.7689237354925416 2.5829510499627224
thorax -8.708600228372857 -0.3463209757090683 2.6039163994133974
lowerneck -19.100675536910796 -3.7002272436736705 -2.6537734184018924
upperneck 7.581273957279657 -3.599977826721502 4.063482686036345
head 5.962438713567959 -1.6953872812195752 1.274312999683197
lclavicle -1.542975268676227e-15 -3.3056547532962347e-15
lhumerus -43.13094542479324 -8.701306235643031 92.03662253698123
lradius 114.59259891775035
lwrist 31.864129529711565
lhand -24.055901451806772 4.479884899522907
lfingers 7.12502
lthumb 2.3031405650114225 34.40712767949308
rclavicle -1.5439177892282129e-15 -3.2958980905204685e-15
rhumerus -49.10008295554571 8.582950366626678 -94.60458089512473
rradius 98.08985651110943
rwrist -24.678803694911057
rhand -18.30760224647586 39.5599238377726
rfingers 7.12502
rthumb 7.904911356555498 9.44299508106758
38
root 0.49605346360058655 18.790128349315882 2.534191674807155 3.897168069282221 1.5248808629769495 -2.8928504901010235
lfemur -17.33621556242401 3.8472316517669785 -16.68737202665025
ltibia 45.52110678057966
lfoot 16.09314073822782 -16.452387381718506
ltoes -8.450485714355054
rfemur -19.360854763448504 2.987933779833508 30.292154331495528
rtibia 50.12197781988901
rfoot 14.234736430761938 -3.77706175130229
rtoes 11.117973237225716
lowerback 14.877796587466207 -0.5671298245492234 0.723483389622555
upperback -0.679869150108372 -0.4367563981068687 2.958231739220527
thorax -8.799776692522457 -0.3063357790361646 2.421480153893441
lowerneck -19.052460833806062 -3.589321607473747 -2.656346791316319
upperneck 7.534536986584499 -3.87267435667174 4.279824655050267
head 5.9287784507519286 -1.6545077028241937 1.2922000995635594
lclavicle -1.5429121624478226e-15 -3.3056219154594885e-15
lhumerus -44.74987882493349 -8.223110724342554 91.80962835341802
lradius 113.25112391522751
lwrist 31.964009768374854
lhand -24.07237552798347 4.544898075176086
lfingers 7.12502
lthumb 2.270723028992431 34.44067181565959
rclavicle -1.5439356061149626e-15 -3.2959117428446936e-15
rhumerus -46.34793603460396 11.039108041838654 -95.81036223975492
rradius 99.2502410627409
rwrist -24.30496286461897
rhand -18.24736517854006 40.041409038718136
rfingers 7.12502
rthumb 7.977955080254912 10.112374811054465
39
root 0.4928955620181693 18.810597162904543 3.323860384163032 4.130760100682603 1.2897976930394561 -3.144799125229057
lfemur -22.47569900809067 5.62983600936152 -15.893202440709278
ltibia 55.566157323570565
lfoot 19.321193854301697 -16.625472186681403
ltoes -8.811344871436287
rfemur -15.839032625427475 2.781914476921167 30.979079965819295
rtibia 50.50852672788183
rfoot 15.437752305967138 -3.5491746441043706
rtoes 8.231534853046124
lowerback 15.055167952997708 -0.4419290757132136 1.3911638107553215
upperback -0.5752690677624519 0.030479301969642325 3.173929278918524
thorax -8.884503636463247 -0.22639774065408935 2.1754146057707047
lowerneck -18.992895191807047 -3.4684087332739484 -2.649954043304322
upperneck 7.534459367391865 -4.299685952270012 4.573683052768965
head 5.91998682593505 -1.692677591063038 1.319636288473193
lclavicle -1.542885232960567e-15 -3.3057138793768523e-15
lhumerus -46.42438575129653 -7.9503865517519205 91.66554717428473
lradius 111.93628571094546
lwrist 31.894039542366077
lhand -24.056280321415436 4.564112277052782
lfingers 7.12502
lthumb 2.226674778466319 34.39244172367172
rclavicle -1.5439492257387695e-15 -3.295921450838925e-15
rhumerus -43.59465905119695 13.476820143274656 -97.14827913267959
rradius 100.28135120187395
rwrist -24.52246769542456
rhand -18.230384993639888 40.03361160781062
rfingers 7.12502
rthumb 8.013239424238499 10.187840504999002
40
root 0.49312728887981294 18.841223206063976 3.9877468268781975 4.3851269297780044 1.3662572500445034 -3.3571148497987906
lfemur -27.032816822605046 7.354984588765615 -15.401091033375927
ltibia 67.04198428109486
lfoot 13.903148364835467 -16.000358300757767
ltoes -9.581012068587818
rfemur -12.781011837944455 2.8622420698244717 31.577415804382333
rtibia 50.011187270195435
rfoot 15.577498902974593 -3.6702415880768844
rtoes 5.078260418110443
lowerback 15.23870019909426 -0.25417612580584403 1.963777324517681
upperback -0.4230093281708457 0.5762931923992811 3.170033796259101
thorax -8.960912727178663 -0.10368306481759193 1.8894161227143305
lowerneck -18.94864305339042 -3.4372901877829705 -2.6481013293060576
upperneck 7.273651199700288 -4.704546704439401 4.825566045403147
head 5.843696580397894 -1.815210277776944 1.347788408904942
lclavicle -1.5429092041702625e-15 -3.3057053925130074e-15
lhumerus -48.207009557387686 -7.915163480165369 91.68040357528687
lradius 110.6017947791024
lwrist 31.554320578328845
lhand -24.012706051827394 4.587628609467251
lfingers 7.12502
lthumb 2.2199015911191258 34.36201823088485
rclavicle -1.5439522656840124e-15 -3.295923829822887e-15
rhumerus -41.16303212336883 15.392045494480389 -98.43893503036233
rradius 101.35065302938614
rwrist -24.258928114185032
rhand -18.293547961730212 39.870509351400436
rfingers 7.12502
rthumb 8.08990507649516 10.117029395693391
41
root 0.4921196162532607 18.865057624774895 4.632764147043796 4.544115086439025 1.207347921773644 -3.477468697750835
lfemur -31.205375063631045 8.404447880012993 -15.179758565880615
ltibia 77.30435055419082
lfoot 11.793275211811897 -14.716557667221082
ltoes -10.47544873771297
rfemur -11.291325315426292 3.086075042242402 31.770058538674828
rtibia 49.60534508989916
rfoot 16.478131363077924 -3.604897565725315
rtoes 3.355904667979215
lowerback 15.475275910487428 -0.012102241753964793 2.46559566645484
upperback -0.32656569911960387 1.1313111979855344 2.9824739142965004
thorax -9.032326863400163 0.04773454790603893 1.5407651873273336
lowerneck -18.881979822147063 -3.462676221882542 -2.6448990504882612
upperneck 7.07389402262468 -5.123446154838803 5.174666531703914
head 5.773783087304682 -1.956395893962788 1.3890462167045783
lclavicle -1.5429121050565734e-15 -3.3056449825333843e-15
lhumerus -50.17561581815559 -7.890555088178311 91.60215904939572
lradius 109.15849547411163
lwrist 31.137533986210144
lhand -23.93488959062789 4.621656468072215
lfingers 7.12502
lthumb 2.2605254778316235 34.34174985850255
rclavicle -1.5439927999885313e-15 -3.2959532220155353e-15
rhumerus -39.53055490147548 16.92261995922093 -99.35874176151269
rradius 102.63442568803136
rwrist -23.310456844947463
rhand -18.27689878171374 39.94949727074344
rfingers 7.12502
rthumb 8.11438417286036 10.15442576517919
42
root 0.495005859936375 18.858674117327887 5.324970963235359 4.672253204310172 0.8449610015493461 -3.5146528762169167
lfemur -34.47535186555032 8.627392244486018 -14.916900033160678
ltibia 85.88248375252411
lfoot 11.29109756213401 -14.230227212936814
ltoes -11.752708890663088
rfemur -10.322004220871772 3.4488781368708783 31.864969037802744
rtibia 49.20891023723697
rfoot 17.60062293441908 -3.4478407311857584
rtoes 2.195420811730477
lowerback 15.699548911849625 0.2559020152249125 2.9269500689470167
upperback -0.31754129748695126 1.6642844327943862 2.7360465996769574
thorax -9.100759434239118 0.22037544872868242 1.102015855277886
lowerneck -18.836033283324973 -3.538979681673184 -2.6484882457163113
upperneck 7.07753646706706 -5.541021502292957 5.504885981771935
head 5.743863354413722 -2.0921138807797837 1.4235015031019196
lclavicle -1.5429142721145536e-15 -3.3056457149602994e-15
lhumerus -52.080479379639044 -7.629175533675694 91.4380540196589
lradius 107.58884156641139
lwrist 30.860248768995532
lhand -23.89266022607149 4.60278682578045
lfingers 7.12502
lthumb 2.305988379484714 34.31064377806318
rclavicle -1.5439913008962289e-15 -3.2959520911122105e-15
rhumerus -39.048980873404844 18.12424349827078 -99.8606128372335
rradius 104.08898614921836
rwrist -22.744205667295113
rhand -18.361140575056606 39.97044362643271
rfingers 7.12502
rthumb 8.056492730207873 10.229044483806865
43
root 0.5046740572075361 18.833884105332448 6.028184106971069 4.7977419034678155 0.4370824956783701 -3.522008014842481
lfemur -36.45005412263915 7.968476092576894 -14.488590959299756
ltibia 91.3499235240325
lfoot 12.253862833555523 -13.150578183562908
ltoes -13.095690741406779
rfemur -9.422276407047153 3.9201657829269347 32.00006799185319
rtibia 48.856169108526046
rfoot 18.106707094758544 -3.363234136350728
rtoes 0.5919371157591371
lowerback 15.863958852737957 0.5396479044641165 3.3858700521724483
upperback -0.3801099830983019 2.1715221805646743 2.515141882201476
thorax -9.138128830047835 0.4162869837701465 0.6041648421051004
lowerneck -18.761498070722766 -3.6077871449396763 -2.6495106828107655
upperneck 7.139622176124846 -5.877819052404096 5.810738356201619
head 5.7155705938357215 -2.193856636575421 1.4513794683618555
lclavicle -1.542914566523181e-15 -3.3056466058384288e-15
lhumerus -53.7320712657828 -7.159873626502822 91.28414333023635
lradius 105.99670817213094
lwrist 30.713628209311878
lhand -23.812686407110704 4.639213707865651
lfingers 7.12502
lthumb 2.387527199291743 34.3366192829529
rclavicle -1.5439924652294296e-15 -3.295952942536393e-15
rhumerus -39.69767531151393 18.708539315805663 -99.94220258910664
rradius 105.5672447468925
rwrist -22.900155617006327
rhand -18.41521526814719 40.03442492382145
rfingers 7.12502
rthumb 7.99463495781336 10.320171844905031
